HIERARCHY
ROOT Hips
{
	OFFSET 0.000000 103.266502 0.000000
	CHANNELS 6 Xposition Yposition Zposition Xrotation Yrotation Zrotation 
	JOINT Spine
	{
		OFFSET -0.002400 12.777504 0.315300
		CHANNELS 3 Xrotation Yrotation Zrotation
		JOINT Spine1
		{
			OFFSET -0.002067 5.816869 0.032633
			CHANNELS 3 Xrotation Yrotation Zrotation
			JOINT Spine1_split
			{
				OFFSET -0.002067 5.816869 0.032633
				CHANNELS 3 Xrotation Yrotation Zrotation
				JOINT Spine2
				{
					OFFSET -0.002067 5.816869 0.032633
					CHANNELS 3 Xrotation Yrotation Zrotation
					JOINT Neck
					{
						OFFSET -0.003700 21.199493 -0.826900
						CHANNELS 3 Xrotation Yrotation Zrotation
						JOINT Head
						{
							OFFSET 0.000000 20.442200 4.834800
							CHANNELS 3 Xrotation Yrotation Zrotation
							JOINT HeadTop_End
							{
								OFFSET 0.000000 34.668396 4.968400
								CHANNELS 3 Xrotation Yrotation Zrotation
								End Site
								{
									OFFSET 0.000000 0.000000 0.000000
								}
							}
						}
					}
					JOINT LeftShoulder
					{
						OFFSET 3.288150 8.794197 -1.372250
						CHANNELS 3 Xrotation Yrotation Zrotation
						JOINT LeftShoulder_split
						{
							OFFSET 3.288150 8.794197 -1.372250
							CHANNELS 3 Xrotation Yrotation Zrotation
							JOINT LeftArm
							{
								OFFSET 11.953299 -2.279007 -0.146200
								CHANNELS 3 Xrotation Yrotation Zrotation
								JOINT LeftForeArm
								{
									OFFSET 18.448900 0.000000 0.000000
									CHANNELS 3 Xrotation Yrotation Zrotation
									JOINT LeftHand
									{
										OFFSET 29.527798 0.000000 0.000000
										CHANNELS 3 Xrotation Yrotation Zrotation
										JOINT LeftHandThumb1
										{
											OFFSET 10.739754 -2.369614 9.225399
											CHANNELS 3 Xrotation Yrotation Zrotation
											JOINT LeftHandThumb2
											{
												OFFSET 4.926170 -2.844131 2.844125
												CHANNELS 3 Xrotation Yrotation Zrotation
												JOINT LeftHandThumb3
												{
													OFFSET 4.614891 -2.664413 2.664409
													CHANNELS 3 Xrotation Yrotation Zrotation
													JOINT LeftHandThumb4
													{
														OFFSET 4.432465 -2.559082 2.559083
														CHANNELS 3 Xrotation Yrotation Zrotation
														End Site
														{
															OFFSET 0.000000 0.000000 0.000000
														}
													}
												}
											}
										}
										JOINT LeftHandIndex1
										{
											OFFSET 26.467674 0.187653 6.405298
											CHANNELS 3 Xrotation Yrotation Zrotation
											JOINT LeftHandIndex2
											{
												OFFSET 8.792900 0.000000 0.000000
												CHANNELS 3 Xrotation Yrotation Zrotation
												JOINT LeftHandIndex3
												{
													OFFSET 10.075203 0.000000 0.000000
													CHANNELS 3 Xrotation Yrotation Zrotation
													End Site
													{
														OFFSET 0.000000 0.000000 0.000000
													}
												}
											}
										}
										JOINT LeftHandMiddle1
										{
											OFFSET 25.764404 0.000000 0.000000
											CHANNELS 3 Xrotation Yrotation Zrotation
											JOINT LeftHandMiddle2
											{
												OFFSET 9.393974 0.000000 0.000000
												CHANNELS 3 Xrotation Yrotation Zrotation
												JOINT LeftHandMiddle3
												{
													OFFSET 10.771950 0.000000 0.000000
													CHANNELS 3 Xrotation Yrotation Zrotation
													End Site
													{
														OFFSET 0.000000 0.000000 0.000000
													}
												}
											}
										}
										JOINT LeftHandRing1
										{
											OFFSET 24.660927 0.144547 -6.225808
											CHANNELS 3 Xrotation Yrotation Zrotation
											JOINT LeftHandRing2
											{
												OFFSET 9.393799 0.000000 0.000000
												CHANNELS 3 Xrotation Yrotation Zrotation
												JOINT LeftHandRing3
												{
													OFFSET 9.928497 0.000000 0.000000
													CHANNELS 3 Xrotation Yrotation Zrotation
													End Site
													{
														OFFSET 0.000000 0.000000 0.000000
													}
												}
											}
										}
										JOINT LeftHandPinky1
										{
											OFFSET 23.655350 0.125290 -12.815412
											CHANNELS 3 Xrotation Yrotation Zrotation
											JOINT LeftHandPinky2
											{
												OFFSET 8.425102 0.000000 0.000000
												CHANNELS 3 Xrotation Yrotation Zrotation
												JOINT LeftHandPinky3
												{
													OFFSET 8.147003 0.000000 0.000000
													CHANNELS 3 Xrotation Yrotation Zrotation
													End Site
													{
														OFFSET 0.000000 0.000000 0.000000
													}
												}
											}
										}
									}
								}
							}
						}
					}
					JOINT RightShoulder
					{
						OFFSET -3.249400 8.794197 -1.372250
						CHANNELS 3 Xrotation Yrotation Zrotation
						JOINT RightShoulder_split
						{
							OFFSET -3.249400 8.794197 -1.372250
							CHANNELS 3 Xrotation Yrotation Zrotation
							JOINT RightArm
							{
								OFFSET -11.953299 -2.279007 -0.146200
								CHANNELS 3 Xrotation Yrotation Zrotation
								JOINT RightForeArm
								{
									OFFSET -18.448900 0.000000 0.000000
									CHANNELS 3 Xrotation Yrotation Zrotation
									JOINT RightHand
									{
										OFFSET -29.527802 0.000000 0.000000
										CHANNELS 3 Xrotation Yrotation Zrotation
										JOINT RightHandThumb1
										{
											OFFSET -10.739754 -2.369614 9.225399
											CHANNELS 3 Xrotation Yrotation Zrotation
											JOINT RightHandThumb2
											{
												OFFSET -4.926170 -2.844131 2.844125
												CHANNELS 3 Xrotation Yrotation Zrotation
												JOINT RightHandThumb3
												{
													OFFSET -4.614891 -2.664413 2.664409
													CHANNELS 3 Xrotation Yrotation Zrotation
													JOINT RightHandThumb4
													{
														OFFSET -4.432465 -2.559082 2.559083
														CHANNELS 3 Xrotation Yrotation Zrotation
														End Site
														{
															OFFSET 0.000000 0.000000 0.000000
														}
													}
												}
											}
										}
										JOINT RightHandIndex1
										{
											OFFSET -26.467674 0.187653 6.405298
											CHANNELS 3 Xrotation Yrotation Zrotation
											JOINT RightHandIndex2
											{
												OFFSET -8.792900 0.000000 0.000000
												CHANNELS 3 Xrotation Yrotation Zrotation
												JOINT RightHandIndex3
												{
													OFFSET -10.075203 0.000000 0.000000
													CHANNELS 3 Xrotation Yrotation Zrotation
													End Site
													{
														OFFSET 0.000000 0.000000 0.000000
													}
												}
											}
										}
										JOINT RightHandMiddle1
										{
											OFFSET -25.764404 0.000000 0.000000
											CHANNELS 3 Xrotation Yrotation Zrotation
											JOINT RightHandMiddle2
											{
												OFFSET -9.393974 0.000000 0.000000
												CHANNELS 3 Xrotation Yrotation Zrotation
												JOINT RightHandMiddle3
												{
													OFFSET -10.771950 0.000000 0.000000
													CHANNELS 3 Xrotation Yrotation Zrotation
													End Site
													{
														OFFSET 0.000000 0.000000 0.000000
													}
												}
											}
										}
										JOINT RightHandRing1
										{
											OFFSET -24.660927 0.144547 -6.225808
											CHANNELS 3 Xrotation Yrotation Zrotation
											JOINT RightHandRing2
											{
												OFFSET -9.393799 0.000000 0.000000
												CHANNELS 3 Xrotation Yrotation Zrotation
												JOINT RightHandRing3
												{
													OFFSET -9.928497 0.000000 0.000000
													CHANNELS 3 Xrotation Yrotation Zrotation
													End Site
													{
														OFFSET 0.000000 0.000000 0.000000
													}
												}
											}
										}
										JOINT RightHandPinky1
										{
											OFFSET -23.655350 0.125290 -12.815412
											CHANNELS 3 Xrotation Yrotation Zrotation
											JOINT RightHandPinky2
											{
												OFFSET -8.425102 0.000000 0.000000
												CHANNELS 3 Xrotation Yrotation Zrotation
												JOINT RightHandPinky3
												{
													OFFSET -8.147003 0.000000 0.000000
													CHANNELS 3 Xrotation Yrotation Zrotation
													End Site
													{
														OFFSET 0.000000 0.000000 0.000000
													}
												}
											}
										}
									}
								}
							}
						}
					}
				}
			}
		}
	}
	JOINT LeftUpLeg
	{
		OFFSET 11.394100 -6.187798 -0.413800
		CHANNELS 3 Xrotation Yrotation Zrotation
		JOINT LeftLeg
		{
			OFFSET 0.430247 -32.302673 3.732800
			CHANNELS 3 Xrotation Yrotation Zrotation
			JOINT LeftFoot
			{
				OFFSET -0.430247 -48.264931 -6.423300
				CHANNELS 3 Xrotation Yrotation Zrotation
				JOINT LeftToeBase
				{
					OFFSET 4.230900 -16.068199 23.438400
					CHANNELS 3 Xrotation Yrotation Zrotation
					JOINT LeftToe_End
					{
						OFFSET 4.510700 0.695400 19.974600
						CHANNELS 3 Xrotation Yrotation Zrotation
						End Site
						{
							OFFSET 0.000000 0.000000 0.000000
						}
					}
				}
			}
		}
	}
	JOINT RightUpLeg
	{
		OFFSET -11.333700 -6.187798 -0.413800
		CHANNELS 3 Xrotation Yrotation Zrotation
		JOINT RightLeg
		{
			OFFSET -0.430392 -32.302628 3.733000
			CHANNELS 3 Xrotation Yrotation Zrotation
			JOINT RightFoot
			{
				OFFSET 0.430392 -48.264973 -6.423500
				CHANNELS 3 Xrotation Yrotation Zrotation
				JOINT RightToeBase
				{
					OFFSET -4.230900 -16.068199 23.438400
					CHANNELS 3 Xrotation Yrotation Zrotation
					JOINT RightToe_End
					{
						OFFSET -4.510700 0.695400 19.974600
						CHANNELS 3 Xrotation Yrotation Zrotation
						End Site
						{
							OFFSET 0.000000 0.000000 0.000000
						}
					}
				}
			}
		}
	}
}
MOTION
Frames: 5
Frame Time: 0.016667
2.904445 77.327225 -48.904404 16.350517 -76.630652 15.193119 4.443412 9.306569 -3.031489 9.594759 18.344819 -7.012222 0.000000 0.000000 0.000000 9.594755 18.344787 -7.012211 2.735905 2.537203 0.917079 2.210334 -0.400985 -2.541340 0.000001 0.000002 0.000000 4.442673 -4.896769 0.391715 0.000000 0.000000 0.000000 -74.044851 -32.200876 -59.779557 45.630028 -71.166398 44.297421 30.811578 -13.945415 5.324263 -19.313941 7.326435 -0.325105 17.757230 27.151370 -7.102064 0.000006 -0.000004 -0.000018 -0.000001 -0.000001 0.000000 8.737633 0.556785 -27.858989 -3.246446 1.052140 -21.338368 -0.000001 0.000000 0.000000 -3.793154 6.626413 -20.382888 -1.406087 -1.003763 -21.514838 0.000000 -0.000002 0.000000 -8.139615 9.456991 -29.778914 1.966550 -4.844275 -27.350973 0.000001 0.000002 -0.000002 -7.314758 11.108287 -42.805820 1.162391 -7.791590 -40.565221 -0.000001 -0.000000 -0.000003 3.889429 8.333837 -7.261186 0.000000 0.000000 0.000000 -42.000233 -3.203197 27.938517 -12.789896 47.794939 2.424366 36.354218 22.263312 -26.066807 -9.151838 -3.932277 17.229565 -8.906338 -3.563903 -6.479050 -0.000001 0.000025 -0.000002 0.000001 -0.000001 -0.000000 -2.009634 8.213997 -5.048300 -1.625958 -0.980991 33.676531 -0.000000 -0.000002 -0.000000 -3.382735 -5.223043 -15.049905 -1.435135 -1.099683 25.006610 -0.000000 0.000001 -0.000000 -8.188930 -12.219945 -0.270458 2.472535 4.601763 34.000432 -0.000000 0.000003 0.000001 -14.081794 -14.805123 6.122710 3.294882 9.546753 30.562303 -0.000001 -0.000001 -0.000002 -53.793805 -11.173018 23.735785 74.885846 16.506499 1.393388 -11.267633 2.924202 -28.540657 -2.515479 -3.237330 0.633301 -0.000000 0.000001 0.000000 -61.369591 -0.501528 -14.331789 81.308730 18.616934 -5.360639 -23.894619 -1.479157 5.361745 -1.854617 -0.300668 0.346314 -0.000000 -0.000000 -0.000000 
3.255533 76.629829 -49.401955 23.692038 -75.362094 21.948791 4.547549 9.154872 -3.096171 9.805973 18.007213 -7.165119 0.000000 0.000000 0.000000 9.805974 18.007220 -7.165119 1.927734 4.490862 1.287776 1.537598 -0.532067 -4.732037 -0.000003 -0.000002 -0.000000 4.342704 -4.985461 -0.341772 0.000000 0.000000 0.000000 -66.423282 -29.193233 -56.580495 44.445458 -70.007397 43.935807 31.304468 -11.015011 4.016402 -19.044912 6.177785 0.482001 19.312372 28.165041 -8.456588 0.000008 -0.000004 -0.000018 -0.000001 0.000003 -0.000001 9.294372 -0.270999 -31.038463 -3.248159 0.907473 -22.504500 -0.000001 -0.000000 0.000001 -3.842861 6.742094 -20.716327 -1.447307 -1.155398 -22.951737 -0.000001 0.000004 0.000000 -8.079864 9.523684 -29.657955 1.892680 -4.850340 -27.940878 0.000000 -0.000001 0.000002 -7.803372 10.746646 -42.756578 1.095367 -7.784625 -41.809213 -0.000001 0.000001 -0.000004 3.540736 8.113212 -5.624217 0.000000 0.000000 0.000000 -39.216078 -4.972975 28.094469 -12.221748 46.311473 3.788301 34.197664 22.070020 -22.498747 -9.063451 -3.936840 17.210062 -8.695221 -3.775182 -6.551199 -0.000004 0.000021 -0.000002 -0.000001 0.000002 0.000001 -2.062661 8.026981 -3.931500 -1.632740 -0.857244 34.503083 0.000001 -0.000002 0.000002 -3.225485 -5.131284 -13.367338 -1.402176 -0.904892 26.301233 0.000000 -0.000005 -0.000000 -7.680287 -12.230756 1.506790 2.246268 4.705202 35.492617 0.000000 0.000001 -0.000002 -13.333134 -14.852446 8.352896 3.002297 9.636744 32.213918 0.000001 0.000002 0.000002 -57.579103 -12.091031 24.437365 75.875089 15.321373 1.167345 -10.780333 2.595482 -28.188341 -2.479115 -3.226628 0.662941 -0.000000 0.000001 -0.000000 -64.620194 -0.179995 -13.904488 82.390113 17.689502 -4.867579 -23.833288 -1.472785 5.433471 -2.079963 -0.442194 0.287591 -0.000000 -0.000002 -0.000000 
3.639658 76.090080 -49.832794 29.693383 -73.844413 27.536410 4.653250 9.008406 -3.153515 10.016244 17.679738 -7.291491 0.000000 0.000000 0.000000 10.016243 17.679750 -7.291498 1.141880 6.463875 1.637540 0.937891 -0.640670 -6.991578 0.000002 0.000000 -0.000000 4.231881 -4.936966 -0.833272 0.000000 0.000000 0.000000 -58.521409 -25.699398 -53.642639 41.104437 -69.046492 41.375739 30.954182 -7.949363 3.669308 -18.695739 5.341783 1.222992 19.851248 28.173192 -9.185004 0.000008 -0.000001 -0.000016 0.000000 -0.000000 0.000000 9.121590 -1.933228 -33.603332 -3.251636 0.762722 -23.660873 0.000002 0.000004 -0.000002 -3.890818 6.785517 -21.931751 -1.491387 -1.304128 -24.365645 -0.000000 -0.000002 0.000002 -7.771802 10.307835 -30.766457 1.809480 -4.872204 -28.906863 -0.000002 0.000002 -0.000005 -7.772679 11.953583 -44.457739 1.028321 -7.779521 -43.355312 0.000000 -0.000001 0.000002 3.219526 7.942034 -3.888784 0.000000 0.000000 0.000000 -35.652382 -7.358673 27.766287 -11.633914 45.311434 5.140163 31.216871 21.636477 -18.441000 -8.993644 -3.944180 17.135312 -8.463734 -3.999602 -6.613710 -0.000001 0.000023 -0.000004 0.000002 -0.000003 -0.000003 -2.142770 7.757691 -2.456753 -1.629389 -0.726819 35.289610 -0.000000 0.000000 0.000003 -3.043229 -5.002352 -11.157960 -1.372891 -0.672066 27.878645 0.000001 0.000003 0.000000 -7.078845 -12.195026 3.756906 1.980158 4.816483 37.201056 0.000002 0.000000 0.000000 -12.440650 -14.869009 10.893924 2.656905 9.731700 34.190038 0.000003 -0.000000 -0.000002 -61.198194 -12.798663 24.767087 76.513186 14.297177 0.918929 -10.162875 2.283825 -27.715163 -2.405844 -3.232626 0.742435 0.000000 0.000001 0.000000 -67.672319 0.283973 -13.565130 83.190222 16.674054 -4.486060 -23.672703 -1.554831 5.687530 -2.114526 -0.465143 0.283344 -0.000000 -0.000002 -0.000000 
4.035429 75.711388 -50.198601 34.265413 -72.201889 31.894688 4.767378 8.866099 -3.196964 10.238191 17.364530 -7.376340 0.000000 0.000000 0.000000 10.238196 17.364549 -7.376344 0.368237 8.396668 1.955980 0.410712 -0.716198 -9.243254 0.000000 -0.000001 0.000001 4.107740 -4.811341 -1.179663 0.000000 0.000000 0.000000 -50.713048 -21.636909 -51.563178 36.144453 -68.037625 36.990167 29.863718 -5.250571 4.082336 -18.282724 4.747848 1.912504 19.476274 27.304088 -9.321535 0.000007 -0.000003 -0.000017 0.000001 -0.000000 -0.000001 8.191139 -4.289883 -35.718099 -3.258106 0.613770 -24.845307 -0.000002 -0.000000 0.000000 -3.936838 6.766875 -23.953755 -1.539530 -1.453371 -25.791197 0.000003 -0.000001 0.000002 -7.141160 11.712605 -33.013053 1.716911 -4.907840 -30.228737 0.000000 0.000002 -0.000000 -7.043594 14.522697 -47.782583 0.961469 -7.775758 -45.186120 -0.000001 0.000002 -0.000001 2.932181 7.881682 -2.048416 0.000000 0.000000 0.000000 -31.285849 -10.550649 27.298314 -11.071055 45.033336 6.402675 27.469773 20.872028 -13.854840 -8.937092 -3.951734 17.012521 -8.206379 -4.247611 -6.666326 0.000000 0.000028 -0.000001 0.000000 -0.000000 0.000000 -2.237307 7.418797 -0.626212 -1.620782 -0.585847 36.089637 -0.000000 0.000001 -0.000001 -2.842425 -4.831138 -8.446978 -1.353445 -0.403311 29.723771 -0.000000 0.000001 -0.000003 -6.401997 -12.092136 6.441905 1.678098 4.929171 39.109151 -0.000003 -0.000001 0.000001 -11.428155 -14.820793 13.730224 2.265927 9.821381 36.452460 0.000001 0.000000 0.000000 -64.496459 -13.215606 24.707422 76.798285 13.473224 0.710949 -9.490173 2.031718 -27.152959 -2.332849 -3.237112 0.814639 -0.000000 -0.000000 0.000000 -70.401000 0.910589 -13.310102 83.726399 15.578306 -4.214308 -23.446397 -1.670199 6.104999 -2.015171 -0.416249 0.308903 -0.000000 0.000000 -0.000000 
4.409893 75.487793 -50.493919 37.532627 -70.564740 35.135470 4.888264 8.724470 -3.215075 10.467512 17.058179 -7.399226 0.000000 0.000000 0.000000 10.467505 17.058184 -7.399230 -0.406297 10.233219 2.248007 -0.042253 -0.748688 -11.408909 0.000001 0.000000 -0.000000 3.963821 -4.635888 -1.485581 0.000000 0.000000 0.000000 -43.366691 -17.194680 -50.718686 30.223847 -66.614125 31.337407 28.302388 -3.243640 5.268349 -17.822807 4.321987 2.563312 18.443703 25.786828 -9.042147 0.000007 -0.000003 -0.000018 -0.000000 0.000000 0.000000 6.630349 -7.058078 -37.575954 -3.267713 0.459781 -26.062422 0.000002 0.000001 -0.000001 -3.981208 6.708356 -26.559156 -1.591865 -1.603621 -27.231812 0.000002 0.000001 -0.000000 -6.147058 13.492528 -36.121640 1.617296 -4.952075 -31.814051 -0.000003 -0.000000 0.000000 -5.417904 17.891081 -52.379461 0.896069 -7.771963 -47.213539 -0.000001 0.000001 0.000004 2.670380 7.955724 -0.110392 0.000000 0.000000 0.000000 -26.274266 -14.550856 27.245768 -10.625647 45.470297 7.582569 23.232957 19.737179 -8.941552 -8.891269 -3.958763 16.846255 -7.922348 -4.522052 -6.708877 -0.000002 0.000023 0.000002 -0.000001 -0.000002 0.000003 -2.328325 7.027177 1.500167 -1.610112 -0.435343 36.913020 -0.000000 -0.000000 -0.000001 -2.634513 -4.618945 -5.328212 -1.349353 -0.106340 31.782216 0.000002 -0.000000 -0.000002 -5.680793 -11.907125 9.468660 1.349034 5.035487 41.169515 0.000001 -0.000001 0.000000 -10.338428 -14.678802 16.790984 1.843043 9.895518 38.932331 0.000001 -0.000000 -0.000000 -67.321261 -13.320341 24.307284 76.746710 12.880648 0.601472 -8.825524 1.844161 -26.613776 -2.284091 -3.228441 0.849411 -0.000000 0.000001 0.000000 -72.665782 1.671692 -13.123420 84.002400 14.434683 -4.038740 -23.226009 -1.780491 6.645938 -1.846803 -0.364236 0.333585 -0.000000 0.000001 0.000000 
